# xmcd CD database file
#
# Track frame offsets:
#	187
#	22247
#	42952
#	64922
#
# Disc length: 1140 seconds
#
# Revision: 5
# Processed by: cddbd v1.5PL3 Copyright (c) Steve Scherf et al.
# Submitted via: CDex 1.50beta8
#
DISCID=34047204
DTITLE=SMAP - ????
DYEAR=1997
DGENRE=JPop
TTITLE0=????
TTITLE1=Let's go to ?????
TTITLE2=????(????)
TTITLE3=Let's go to ?????(????)
EXTD=YEAR: 1997
EXTT0=
EXTT1=
EXTT2=
EXTT3=
PLAYORDER=
